<?xml version="1.0" ?><!DOCTYPE svg  PUBLIC '-//W3C//DTD SVG 1.1//EN'  'http://www.w3.org/Graphics/SVG/1.1/DTD/svg11.dtd'><svg enable-background="new 0 0 141.732 141.732" height="141.732px" id="key-icon" version="1.1" viewBox="0 0 141.732 141.732" width="141.732px" xml:space="preserve" xmlns="http://www.w3.org/2000/svg" xmlns:xlink="http://www.w3.org/1999/xlink"><g id="Livello_43"><path d="M82.095,35.352c0,6.201-5.024,11.229-11.229,11.229c-6.203,0-11.229-5.028-11.229-11.229s5.027-11.23,11.229-11.23   C77.069,24.121,82.095,29.15,82.095,35.352 M106.217,35.352C106.217,15.828,90.39,0,70.867,0C51.343,0,35.515,15.828,35.515,35.352   c0,14.757,9.045,27.397,21.895,32.69v20.759l11.289,5.645l-11.289,5.646v3.24l11.289,5.646l-11.289,5.646v3.239l11.289,5.646   l-11.289,5.645v1.488l13.457,10.783l13.458-10.783V68.043C97.172,62.75,106.217,50.109,106.217,35.352"/></g><g id="Livello_1_1_"/></svg>